<?xml version="1.0" encoding="utf-8"?>
<!-- Generator: Adobe Illustrator 22.1.0, SVG Export Plug-In . SVG Version: 6.00 Build 0)  -->
<svg version="1.1" id="Layer_1" xmlns="http://www.w3.org/2000/svg" xmlns:xlink="http://www.w3.org/1999/xlink" x="0px" y="0px"
	 viewBox="0 0 571 100" style="enable-background:new 0 0 571 100;" xml:space="preserve">
<style type="text/css">
	.st0{fill:#FFFFFF;}
</style>
<g>
	<path class="st0" d="M505.5,24.8h-11.6c-1.3,0-2.3,1.1-2.3,2.3c0,1.3,1.1,2.3,2.3,2.3h11.6c1.3,0,2.3-1.1,2.3-2.3
		C507.8,25.8,506.8,24.8,505.5,24.8z M505.5,27.7h-11.6c-0.3,0-0.6-0.3-0.6-0.6c0-0.3,0.3-0.6,0.6-0.6h11.6c0.3,0,0.6,0.3,0.6,0.6
		C506.1,27.5,505.8,27.7,505.5,27.7z"/>
	<path class="st0" d="M493.9,41.8h11.6c1.3,0,2.3-1.1,2.3-2.3c0-1.3-1.1-2.3-2.3-2.3h-11.6c-1.3,0-2.3,1-2.3,2.3
		C491.6,40.7,492.6,41.8,493.9,41.8z M493.9,38.8h11.6c0.3,0,0.6,0.3,0.6,0.6c0,0.3-0.3,0.6-0.6,0.6h-11.6c-0.3,0-0.6-0.3-0.6-0.6
		C493.3,39.1,493.6,38.8,493.9,38.8z"/>
	<path class="st0" d="M509.4,2.7h-49.6c-1.5,0-2.6,1.2-2.6,2.6v90.6c0,1.4,1.2,2.6,2.6,2.6h49.6c1.5,0,2.6-1.2,2.6-2.6V5.3
		C512,3.8,510.8,2.7,509.4,2.7z M458.9,5.3c0-0.5,0.4-0.9,0.9-0.9h49.6c0.5,0,0.9,0.4,0.9,0.9v26.7h-51.4V5.3z M510.3,95.9
		c0,0.5-0.4,0.9-0.9,0.9h-49.6c-0.5,0-0.9-0.4-0.9-0.9V33.7h51.4V95.9z"/>
	<path class="st0" d="M463.5,95.1h14.4c0.5,0,0.9-0.4,0.9-0.9c0-0.5-0.4-0.9-0.9-0.9h-14.4c-0.5,0-0.9-0.4-0.9-0.9V67.2
		c0-0.5-0.4-0.9-0.9-0.9c-0.5,0-0.9,0.4-0.9,0.9v25.2C460.9,93.9,462.1,95.1,463.5,95.1z"/>
	<path class="st0" d="M566.4,35.5h-49.6c-1.5,0-2.6,1.2-2.6,2.6v57.8c0,1.4,1.2,2.6,2.6,2.6l49.6,0c1.5,0,2.6-1.2,2.6-2.6V38.1
		C569,36.7,567.9,35.5,566.4,35.5z M515.9,38.1c0-0.5,0.4-0.9,0.9-0.9h49.6c0.5,0,0.9,0.4,0.9,0.9v8.4h-51.4V38.1z M567.3,95.9
		c0,0.5-0.4,0.9-0.9,0.9h-49.6c-0.5,0-0.9-0.4-0.9-0.9V48.2h51.4V95.9z"/>
	<path class="st0" d="M452.6,44.4h-1.8c0.1-0.3,0.2-0.6,0.2-0.9v-6.8c0-1.5-1.2-2.6-2.6-2.6h-41.2c-1.5,0-2.6,1.2-2.6,2.6v6.8
		c0,0.3,0.1,0.6,0.2,0.9h-1.8c-1.5,0-2.6,1.2-2.6,2.6v48.9c0,1.4,1.2,2.6,2.6,2.6h49.6c1.5,0,2.6-1.2,2.6-2.6V47
		C455.2,45.6,454,44.4,452.6,44.4z M406.3,43.5v-6.8c0-0.5,0.4-0.9,0.9-0.9h41.2c0.5,0,0.9,0.4,0.9,0.9v6.8c0,0.5-0.4,0.9-0.9,0.9
		h-41.2C406.7,44.4,406.3,44,406.3,43.5z M453.4,95.9c0,0.5-0.4,0.9-0.9,0.9h-49.6c-0.5,0-0.9-0.4-0.9-0.9V47c0-0.5,0.4-0.9,0.9-0.9
		h4.2h41.2h4.2c0.5,0,0.9,0.4,0.9,0.9V95.9z"/>
	<path class="st0" d="M563.9,40.8h-7.4c-1.3,0-2.3,1-2.3,2.3c0,1.3,1,2.3,2.3,2.3h7.4c1.3,0,2.3-1,2.3-2.3
		C566.2,41.8,565.2,40.8,563.9,40.8z M563.9,43.7h-7.4c-0.3,0-0.6-0.3-0.6-0.6c0-0.3,0.3-0.6,0.6-0.6h7.4c0.3,0,0.6,0.3,0.6,0.6
		C564.5,43.4,564.2,43.7,563.9,43.7z"/>
	<path class="st0" d="M525.5,78.4c0.9,2.1,2.1,4,3.7,5.6c1.6,1.6,3.5,2.9,5.6,3.7c2.2,0.9,4.4,1.4,6.8,1.4c2.4,0,4.7-0.5,6.8-1.4
		c2.1-0.9,4-2.1,5.6-3.7c1.6-1.6,2.9-3.5,3.7-5.6c0.9-2.2,1.4-4.4,1.4-6.8c0-2.4-0.5-4.7-1.4-6.8c-0.9-2.1-2.1-4-3.7-5.6
		c-1.6-1.6-3.5-2.9-5.6-3.7c-2.2-0.9-4.4-1.4-6.8-1.4c-2.4,0-4.7,0.5-6.8,1.4c-2.1,0.9-4,2.1-5.6,3.7c-1.6,1.6-2.9,3.5-3.7,5.6
		c-0.9,2.2-1.4,4.4-1.4,6.8C524.1,73.9,524.6,76.2,525.5,78.4z M527.1,65.4c0.8-1.9,1.9-3.6,3.4-5c1.4-1.4,3.1-2.6,5-3.4
		c1.9-0.8,4-1.2,6.1-1.2c2.1,0,4.2,0.4,6.1,1.2c1.9,0.8,3.6,1.9,5,3.4c1.4,1.4,2.6,3.1,3.4,5c0.8,1.9,1.2,4,1.2,6.1
		c0,2.1-0.4,4.2-1.2,6.1c-0.8,1.9-1.9,3.6-3.4,5c-1.4,1.4-3.1,2.6-5,3.4c-1.9,0.8-4,1.2-6.1,1.2c-2.1,0-4.2-0.4-6.1-1.2
		c-1.9-0.8-3.6-1.9-5-3.4c-1.4-1.4-2.6-3.1-3.4-5c-0.8-1.9-1.2-4-1.2-6.1C525.9,69.4,526.3,67.4,527.1,65.4z"/>
	<path class="st0" d="M521.4,56c1.7,0,3.1-1.4,3.1-3.1c0-1.7-1.4-3.1-3.1-3.1c-1.7,0-3.1,1.4-3.1,3.1C518.3,54.6,519.7,56,521.4,56z
		 M521.4,51.6c0.7,0,1.3,0.6,1.3,1.3c0,0.7-0.6,1.3-1.3,1.3c-0.7,0-1.3-0.6-1.3-1.3C520.1,52.2,520.7,51.6,521.4,51.6z"/>
	<path class="st0" d="M528.7,72.2c0.5,0,0.9-0.4,0.9-0.9c0-1.7,0.3-3.4,1-4.9c0.6-1.5,1.5-2.9,2.7-4c1.2-1.2,2.5-2.1,4-2.7
		c1.6-0.7,3.2-1,4.9-1c0.5,0,0.9-0.4,0.9-0.9c0-0.5-0.4-0.9-0.9-0.9c-1.9,0-3.8,0.4-5.6,1.1c-1.7,0.7-3.2,1.8-4.6,3.1
		c-1.3,1.3-2.4,2.9-3.1,4.6c-0.8,1.8-1.1,3.7-1.1,5.6C527.9,71.8,528.3,72.2,528.7,72.2z"/>
	<path class="st0" d="M528.7,74.3c-0.5,0-0.8,0.4-0.8,0.8c0,0.5,0.4,0.8,0.8,0.8c0.4,0,0.8-0.4,0.8-0.8
		C529.6,74.6,529.2,74.3,528.7,74.3z"/>
	<path class="st0" d="M440.1,59.2c-1.6-1.6-3.5-2.9-5.6-3.7c-1.9-0.8-3.9-1.3-5.9-1.4v0h-0.9h-0.9v0c-2.1,0.1-4,0.6-5.9,1.4
		c-2.1,0.9-4,2.1-5.6,3.7c-1.6,1.6-2.9,3.5-3.7,5.6c-0.9,2.2-1.4,4.4-1.4,6.8c0,2.4,0.5,4.7,1.4,6.8c0.9,2.1,2.1,4,3.7,5.6
		c1.6,1.6,3.5,2.9,5.6,3.7c1.9,0.8,3.9,1.3,5.9,1.4v0h1.8v0c2-0.1,4-0.6,5.9-1.4c2.1-0.9,4-2.1,5.6-3.7c1.6-1.6,2.9-3.5,3.7-5.6
		c0.9-2.2,1.4-4.4,1.4-6.8c0-2.4-0.5-4.7-1.4-6.8C443,62.7,441.7,60.8,440.1,59.2z M442.2,77.7c-0.8,1.9-1.9,3.6-3.4,5
		c-1.4,1.4-3.1,2.6-5,3.4c-1.9,0.8-4,1.2-6.1,1.2c-2.1,0-4.2-0.4-6.1-1.2c-1.9-0.8-3.6-1.9-5-3.4c-1.4-1.4-2.6-3.1-3.4-5
		c-0.8-1.9-1.2-4-1.2-6.1c0-2.1,0.4-4.2,1.2-6.1c0.8-1.9,1.9-3.6,3.4-5c1.4-1.4,3.1-2.6,5-3.4c1.9-0.8,4-1.2,6.1-1.2
		c2.1,0,4.2,0.4,6.1,1.2c1.9,0.8,3.6,1.9,5,3.4c1.4,1.4,2.6,3.1,3.4,5c0.8,1.9,1.2,4,1.2,6.1C443.5,73.7,443.1,75.8,442.2,77.7z"/>
	<path class="st0" d="M427.5,83.5c-1.7,0-3.4-0.3-4.9-1c-1.5-0.6-2.9-1.5-4-2.7c-1.2-1.2-2.1-2.5-2.7-4c-0.7-1.6-1-3.2-1-4.9
		c0-0.5-0.4-0.9-0.9-0.9c-0.5,0-0.9,0.4-0.9,0.9c0,1.9,0.4,3.8,1.1,5.6c0.7,1.7,1.8,3.3,3.1,4.6c1.3,1.3,2.9,2.4,4.6,3.1
		c1.8,0.7,3.7,1.1,5.6,1.1c0.5,0,0.9-0.4,0.9-0.9S428,83.5,427.5,83.5z"/>
	<path class="st0" d="M481.2,95c0.4,0,0.8-0.4,0.8-0.8c0-0.4-0.4-0.8-0.8-0.8c-0.5,0-0.8,0.4-0.8,0.8C480.4,94.6,480.8,95,481.2,95z
		"/>
	<path class="st0" d="M414.1,68.6c0.4,0,0.8-0.4,0.8-0.8c0-0.5-0.4-0.8-0.8-0.8c-0.5,0-0.8,0.4-0.8,0.8
		C413.3,68.3,413.7,68.6,414.1,68.6z"/>
	<path class="st0" d="M418.4,37.7h-8.9c-1.1,0-2,0.9-2,2c0,1.1,0.9,2,2,2h8.9c1.1,0,2-0.9,2-2C420.5,38.6,419.6,37.7,418.4,37.7z
		 M418.4,40h-8.9c-0.2,0-0.3-0.1-0.3-0.3c0-0.2,0.1-0.3,0.3-0.3h8.9c0.2,0,0.3,0.1,0.3,0.3C418.7,39.9,418.6,40,418.4,40z"/>
	<path class="st0" d="M445.4,37.7h-8.9c-1.1,0-2,0.9-2,2c0,1.1,0.9,2,2,2h8.9c1.1,0,2-0.9,2-2C447.4,38.6,446.5,37.7,445.4,37.7z
		 M445.4,40h-8.9c-0.2,0-0.3-0.1-0.3-0.3c0-0.2,0.1-0.3,0.3-0.3h8.9c0.2,0,0.3,0.1,0.3,0.3C445.7,39.9,445.5,40,445.4,40z"/>
	<path class="st0" d="M35.3,33.4c-3,0-5.4,2.4-5.4,5.4c0,3,2.4,5.4,5.4,5.4c3,0,5.4-2.4,5.4-5.4C40.6,35.8,38.2,33.4,35.3,33.4z
		 M35.3,42.5c-2.1,0-3.8-1.7-3.8-3.8c0-2.1,1.7-3.8,3.8-3.8c2.1,0,3.8,1.7,3.8,3.8C39,40.8,37.3,42.5,35.3,42.5z"/>
	<path class="st0" d="M47.5,35.3h-1.8c-0.1-0.2-0.1-0.4-0.2-0.5l0,0c0,0,0-0.1,0-0.1c0,0,0-0.1,0-0.1l0,0c-0.1-0.3-0.2-0.5-0.3-0.8
		l1.3-1.3c0.7-0.7,0.7-1.9,0-2.7l-2.2-2.2c-0.7-0.7-1.9-0.7-2.7,0l-1.3,1.3c-0.2-0.1-0.4-0.2-0.5-0.2l0,0c0,0-0.1,0-0.1,0
		c0,0-0.1,0-0.1-0.1l0,0c-0.3-0.1-0.5-0.2-0.8-0.3v-1.8c0-1-0.8-1.9-1.9-1.9h-3.1c-1,0-1.9,0.8-1.9,1.9v1.8
		c-0.2,0.1-0.4,0.1-0.6,0.2l0,0c0,0,0,0-0.1,0c-0.1,0-0.1,0-0.2,0.1l0,0c-0.3,0.1-0.5,0.2-0.8,0.3L29,27.7c-0.7-0.7-1.7-0.7-2.5-0.1
		c0.2-0.3,0.4-0.7,0.6-1c0.7-1.7,0.7-3.6,0-5.2c-1.2-2.8-4.1-4.5-7.1-4.2c-0.6,0.1-1.3,0.2-1.9,0.5c-3.5,1.4-5.2,5.5-3.7,9
		c1.2,2.8,4.1,4.5,7.1,4.2c0.6-0.1,1.3-0.2,1.9-0.5c0.3-0.1,0.6-0.3,0.9-0.5l-0.1,0.1c-0.4,0.4-0.5,0.8-0.5,1.3c0,0.5,0.2,1,0.5,1.3
		l1.3,1.3c-0.1,0.2-0.2,0.4-0.2,0.5l0,0c0,0,0,0.1,0,0.1c0,0,0,0.1-0.1,0.1l0,0c-0.1,0.3-0.2,0.5-0.3,0.8H23c-1,0-1.9,0.8-1.9,1.9
		v3.1c0,1,0.8,1.9,1.9,1.9h1.8c0.1,0.2,0.1,0.4,0.2,0.6l0,0c0,0,0,0,0,0.1c0,0.1,0,0.1,0.1,0.2l0,0c0.1,0.3,0.2,0.5,0.3,0.8L24.2,45
		c-0.7,0.7-0.7,1.9,0,2.7l2.2,2.2c0.4,0.4,0.8,0.5,1.3,0.5c0.5,0,1-0.2,1.3-0.5l1.3-1.3c0.2,0.1,0.4,0.2,0.5,0.2l0,0
		c0,0,0.1,0,0.1,0c0,0,0.1,0,0.1,0.1l0,0c0.3,0.1,0.5,0.2,0.8,0.3V51c0,1,0.8,1.9,1.9,1.9h3.1c1,0,1.9-0.8,1.9-1.9v-1.8
		c0.2-0.1,0.4-0.1,0.5-0.2l0,0c0,0,0.1,0,0.1,0c0,0,0.1,0,0.1-0.1l0,0c0.3-0.1,0.5-0.2,0.8-0.3l1.3,1.3c0.4,0.4,0.9,0.5,1.3,0.5
		c0.5,0,1-0.2,1.3-0.5l2.2-2.2c0.7-0.7,0.7-1.9,0-2.7l-1.3-1.3c0.1-0.2,0.2-0.4,0.2-0.5l0,0c0,0,0-0.1,0-0.1c0,0,0-0.1,0.1-0.1l0,0
		c0.1-0.3,0.2-0.5,0.3-0.8h1.8c1,0,1.9-0.8,1.9-1.9v-3.1C49.4,36.2,48.6,35.3,47.5,35.3z M22.6,28.3c-0.4,0.2-0.9,0.3-1.3,0.3
		c-2.1,0.2-4.2-1-5-2.9c-1-2.4,0.2-5.3,2.6-6.3c0.4-0.2,0.9-0.3,1.3-0.3c2.1-0.2,4.2,1,5,2.9c0.5,1.2,0.5,2.5,0,3.7
		C24.7,26.9,23.8,27.8,22.6,28.3z M47.8,40.3c0,0.2-0.1,0.3-0.3,0.3h-3l-0.2,0.6c-0.1,0.4-0.3,0.8-0.4,1.3c-0.1,0.3-0.3,0.7-0.5,1
		L43.1,44l2.1,2.1c0.1,0.1,0.1,0.3,0,0.4L43,48.7c-0.1,0.1-0.3,0.1-0.4,0l-2.1-2.1L40,46.9c-0.4,0.2-0.8,0.4-1.2,0.6
		c-0.3,0.1-0.7,0.2-1,0.3L37.1,48v3c0,0.1-0.1,0.3-0.3,0.3h-3.1c-0.1,0-0.3-0.1-0.3-0.3v-3l-0.6-0.2c-0.4-0.1-0.9-0.3-1.3-0.4
		c-0.3-0.1-0.7-0.3-1-0.5L30,46.6l-2.1,2.1c-0.1,0.1-0.3,0.1-0.4,0l-2.2-2.2c-0.1-0.1-0.1-0.3,0-0.4l2.1-2.1l-0.3-0.6
		c-0.2-0.4-0.4-0.8-0.6-1.2c-0.1-0.3-0.3-0.7-0.3-1L26,40.6h-3c-0.1,0-0.3-0.1-0.3-0.3v-3.1c0-0.2,0.1-0.3,0.3-0.3h3l0.2-0.6
		c0.1-0.4,0.3-0.9,0.5-1.3c0.1-0.3,0.3-0.6,0.5-0.9l0.3-0.6l-2.1-2.1c-0.1-0.1-0.1-0.1-0.1-0.2c0,0,0-0.1,0.1-0.2l2.2-2.2
		c0.1-0.1,0.3-0.1,0.4,0l2.1,2.1l0.6-0.3c0.4-0.2,0.8-0.4,1.2-0.6c0.3-0.1,0.7-0.3,1-0.3l0.6-0.2v-3c0-0.1,0.1-0.3,0.3-0.3h3.1
		c0.1,0,0.3,0.1,0.3,0.3v3l0.6,0.2c0.4,0.1,0.8,0.3,1.3,0.4c0.3,0.1,0.7,0.3,1,0.5l0.6,0.3l2.1-2.1c0.1-0.1,0.3-0.1,0.4,0l2.2,2.2
		c0.1,0.1,0.1,0.3,0,0.4l-2.1,2.1l0.3,0.6c0.2,0.4,0.4,0.8,0.6,1.2c0.1,0.3,0.3,0.7,0.3,1l0.2,0.6h3c0.2,0,0.3,0.1,0.3,0.3V40.3z"/>
	<path class="st0" d="M20,36c-0.4,0-1.2-0.1-1.7-0.3l-1.4,3.5c-0.1,0.2-0.3,0.3-0.4,0.2l-3.6-1.5c-0.2-0.1-0.3-0.3-0.2-0.4l1.5-3.6
		l-0.7-0.5c-0.4-0.3-0.9-0.7-1.3-1.1c-0.3-0.3-0.6-0.7-0.9-1l-0.5-0.7L7.2,32c-0.2,0.1-0.4,0-0.4-0.2l-1.5-3.6
		c-0.1-0.2,0-0.4,0.2-0.4L9,26.3l-0.1-0.8c-0.1-0.6-0.1-1.2-0.1-1.7c0-0.5,0-0.9,0.1-1.4L9,21.5L5.4,20c-0.1,0-0.2-0.1-0.2-0.2
		c0,0,0-0.1,0-0.3l1.5-3.6c0-0.1,0.1-0.2,0.2-0.2c0,0,0.1,0,0.3,0l3.5,1.5l0.5-0.7c0.3-0.5,0.7-0.9,1.2-1.3c0.3-0.3,0.7-0.6,1-0.9
		l0.7-0.5l-1.5-3.5c-0.1-0.2,0-0.4,0.2-0.4l3.6-1.5c0.1,0,0.2,0,0.3,0c0.1,0,0.1,0.1,0.2,0.2l1.5,3.5l0.8-0.1
		c0.6-0.1,1.2-0.1,1.7-0.1c0.5,0,0.9,0,1.4,0.1l0.9,0.1l1.5-3.5c0.1-0.2,0.3-0.3,0.5-0.2l3.6,1.5c0.2,0.1,0.3,0.3,0.2,0.4l-1.5,3.6
		l0.7,0.5c0.5,0.3,0.9,0.7,1.3,1.2c0.3,0.3,0.6,0.7,0.9,1l0.5,0.7l3.5-1.5c0.2-0.1,0.4,0,0.4,0.2l1.5,3.6c0.1,0.2,0,0.4-0.2,0.4
		l-3.5,1.5l0.1,0.8c0.1,0.5,0.1,1,0.1,1.6h2.1c0-0.4,0-0.7,0-1.1l2.1-0.9c1.2-0.5,1.8-1.9,1.3-3.1l-1.5-3.6
		c-0.5-1.2-1.9-1.8-3.1-1.3l-2.1,0.9c-0.2-0.2-0.3-0.4-0.5-0.5l0,0c0,0-0.1-0.1-0.1-0.1c0,0-0.1-0.1-0.1-0.1l0,0
		c-0.3-0.3-0.5-0.5-0.8-0.8l0.9-2.1c0.5-1.2-0.1-2.6-1.3-3.1l-3.6-1.5c-1.2-0.5-2.6,0.1-3.1,1.3l-0.9,2.1c-0.2,0-0.5,0-0.7,0l0,0
		c0,0-0.1,0-0.1,0c-0.1,0-0.1,0-0.2,0v0c-0.4,0-0.7,0-1.1,0l-0.9-2.1c-0.5-1.2-1.9-1.8-3.1-1.3L12,8c-1.2,0.5-1.8,1.9-1.3,3.1
		l0.9,2.1c-0.2,0.2-0.4,0.3-0.5,0.5l0,0c0,0-0.1,0.1-0.1,0.1c0,0-0.1,0.1-0.1,0.1l0,0c-0.3,0.3-0.5,0.5-0.8,0.8L8,13.9
		c-0.6-0.2-1.2-0.2-1.8,0c-0.6,0.2-1.1,0.7-1.3,1.3l-1.5,3.6c-0.2,0.6-0.2,1.2,0,1.8c0.2,0.6,0.7,1.1,1.3,1.3l2.1,0.9
		c0,0.2,0,0.5,0,0.7l0,0c0,0,0,0.1,0,0.1c0,0.1,0,0.1,0,0.2h0c0,0.4,0,0.7,0,1.1l-2.1,0.9c-1.2,0.5-1.8,1.9-1.3,3.1l1.5,3.6
		c0.5,1.2,1.9,1.8,3.1,1.3l2.1-0.9c0.2,0.2,0.3,0.4,0.5,0.6l0,0c0,0,0.1,0.1,0.1,0.1c0,0,0.1,0.1,0.1,0.1l0,0
		c0.3,0.3,0.5,0.5,0.8,0.8l-0.9,2.1c-0.5,1.2,0.1,2.6,1.3,3.1l3.6,1.5c0.4,0.2,0.8,0.2,1.2,0.2c0.8-0.1,1.6-0.6,2-1.5l0.9-2.1
		C19.7,37.9,20.5,36.2,20,36C20.1,36,20,36,20,36z"/>
	<path class="st0" d="M128.3,75c-0.4-0.6-1-0.9-1.6-0.9c-0.6,0-1.3,0.3-2.2,1c-2.3,1.7-4.9,3-7.8,4.1c-2.9,1-6,1.5-9.1,1.5
		c-4,0-7.7-0.8-11.2-2.3c-3.5-1.5-6.5-3.7-9.1-6.4c-2.6-2.7-4.6-5.9-6-9.5c-1.4-3.6-2.1-7.4-2.1-11.4c0-4,0.7-7.8,2.1-11.3
		c1.4-3.6,3.4-6.7,6-9.4c2.6-2.6,5.6-4.7,9.1-6.2c3.5-1.5,7.2-2.2,11.2-2.2c3.2,0,6.2,0.5,9,1.4c2.4,0.8,5.2,2.2,8.2,4.1
		c0.7,0.4,1.3,0.7,1.9,0.7c0.6,0,1.1-0.3,1.5-0.8l6.4-10.8c0.2-0.3,0.3-0.6,0.3-1.1c0-0.7-0.3-1.4-1-1.9c-3.7-2.7-7.6-4.7-11.9-6.2
		c-4.3-1.4-9.1-2.1-14.3-2.1c-4.2,0-8.2,0.5-12.2,1.6c-3.9,1.1-7.6,2.6-11.1,4.6c-3.4,1.9-6.5,4.3-9.3,7.1c-2.8,2.8-5.2,5.9-7.3,9.3
		c-2,3.5-3.6,7.1-4.7,11.1c-1.1,3.9-1.6,8-1.6,12.2c0,4.2,0.5,8.2,1.6,12.2c1.1,4,2.6,7.7,4.7,11.1c2,3.4,4.4,6.5,7.3,9.3
		c2.8,2.8,5.9,5.2,9.4,7.2c3.5,2,7.2,3.6,11.1,4.7c3.9,1.1,8,1.6,12.2,1.6c5.2,0,10-0.7,14.2-2.2c4.3-1.4,8.2-3.5,11.9-6.2
		c0.9-0.7,1.4-1.3,1.4-2c0-0.5-0.2-1-0.7-1.5L128.3,75z"/>
	<path class="st0" d="M206.3,51c-2.5-2-5.5-3.7-8.9-5.2c-3.5-1.5-7.5-2.9-12.1-4.3c-3-0.9-5.6-1.7-7.5-2.3c-2-0.7-3.6-1.4-5.1-2.2
		c-1.6-0.9-2.9-1.9-3.7-3c-0.8-1.1-1.2-2.4-1.2-3.9c0-3.7,1.5-6.3,4.6-7.9c2.2-1.1,5.3-1.7,9.3-1.7c3,0,6.3,1,9.8,2.9
		c2.3,1.3,4.8,3.1,7.4,5.4c1.2,1,2.2,1.5,3,1.5c0.6,0,1.1-0.2,1.6-0.7l6.6-7.2c0.8-0.8,1.1-1.6,1.1-2.4c0-0.8-0.4-1.5-1.1-2.2
		c-3.7-3.8-7.9-6.8-12.6-9.1c-5.1-2.5-10.2-3.7-15.3-3.7c-4.7,0-9.1,0.6-13.1,1.8c-4,1.2-7.5,2.9-10.4,5.1c-2.9,2.2-5.2,4.8-6.7,7.9
		c-1.5,3.1-2.3,6.4-2.3,10.1c0,6.6,2.5,12.1,7.6,16.5c4.8,4.2,12.2,7.7,22.3,10.7l1.6,0.4c2.2,0.6,4,1.2,5.4,1.6
		c1.3,0.4,2.6,1,3.8,1.7c4,2.2,6,5,6,8.2c0,1.5-0.3,3-1,4.4c-0.7,1.4-1.7,2.6-2.9,3.7c-1.4,1.1-3,2-4.9,2.6c-1.9,0.6-4,1-6.3,1
		c-4.1,0-8.1-1.1-12-3.4c-2.8-1.5-5.7-3.9-8.9-7c-1-0.9-1.8-1.3-2.5-1.3c-0.6,0-1.1,0.2-1.6,0.7l-8.1,7.9c-0.6,0.6-1,1.2-1,1.8
		c0,0.1,0,0.3,0.1,0.5c0.2,0.6,0.6,1.4,1.4,2.2c4.1,4.5,9.1,8.1,14.9,10.7c6,2.7,12,4.1,18.1,4.1c4.4,0,8.6-0.7,12.6-2
		c4-1.3,7.6-3.2,10.7-5.6c3.2-2.4,5.7-5.4,7.5-8.8c1.8-3.4,2.7-7.1,2.7-11.2c0-4.1-0.7-7.6-2.3-10.6C211.3,55.9,209.1,53.3,206.3,51
		z"/>
	<path class="st0" d="M286.1,6.5h-63.2c-1.6,0-2.3,0.8-2.3,2.3v11.4c0,1.6,0.8,2.4,2.3,2.4h22.4v70.8c0,1.6,0.8,2.4,2.3,2.4h12.9
		c1.6,0,2.3-0.8,2.3-2.4V22.6h23.1c1.6,0,2.3-0.8,2.3-2.4V8.9C288.5,7.3,287.7,6.5,286.1,6.5z"/>
	<path class="st0" d="M370.6,6.5h-11.9c-0.8,0-1.5,0.3-2,0.8c-0.5,0.5-0.8,1.1-0.8,1.9v51.4c0,2.8-0.5,5.4-1.4,7.9
		c-0.9,2.5-2.2,4.7-3.9,6.6c-1.7,1.9-3.8,3.4-6.1,4.5c-2.3,1.1-4.9,1.6-7.6,1.6s-5.3-0.5-7.6-1.6c-2.4-1.1-4.4-2.6-6.1-4.5
		c-1.7-1.9-3-4.1-3.9-6.6c-0.9-2.5-1.4-5.1-1.4-7.9V9.2c0-0.7-0.3-1.3-0.9-1.8c-0.6-0.5-1.2-0.8-1.8-0.8h-12.5
		c-0.7,0-1.3,0.3-1.8,0.8c-0.5,0.6-0.8,1.2-0.8,1.8v51.4c0,6.6,1.7,12.8,5.1,18.5c3.2,5.5,7.6,9.9,13.2,13.2
		c5.8,3.4,12,5.1,18.5,5.1c5,0,9.7-1,14.2-2.9c4.5-1.9,8.4-4.6,11.8-8c3.4-3.4,6.1-7.3,7.9-11.8c1.9-4.5,2.8-9.2,2.8-14.1V9.2
		c0-0.8-0.3-1.4-0.9-1.9C372.1,6.8,371.4,6.5,370.6,6.5z"/>
</g>
</svg>
